{"title":"Alice 1990 DVDrip English Klam","uid":5826542,"size":1056840780,"categoryP":"video","categoryS":"movies","magnet":"?xt=urn:btih:ebd31b56d27d96d873769eb4f96bc4f63e065508&amp;dn=Alice+1990+DVDrip+English+Klam&amp;tr=udp%3A%2F%2Ftracker.openbittorrent.com%3A80&amp;tr=udp%3A%2F%2Fopen.demonii.com%3A1337&amp;tr=udp%3A%2F%2Ftracker.coppersurfer.tk%3A6969&amp;tr=udp%3A%2F%2Fexodus.desync.com%3A6969","seeders":0,"leechers":0,"uploader":"Klambake","files":5,"time":1284307842,"description":"With: Joe Mantegna, Mia Farrow en William Hurt\n\nAlice Tate, mother of two, with a marriage of 16 years, finds herself falling for the handsome sax player, Joe. Stricken with a backache, she consults Dr. Yang, an oriental herbalist who realizes that her problems are not related to her back, but in her mind and heart. Dr. Yang's magical herbs give Alice wondrous powers, taking her out of well-established rut. \n\nGeneral:\n\nComplete name                    : Alice\\Alice.avi\nFormat                           : AVI\nFormat/Info                      : Audio Video Interleave\nFile size                        : 1 006 MiB\nDuration                         : 1h 41mn\nOverall bit rate                 : 1 380 Kbps\n\nVideo:\n\nFormat                           : MPEG-4 Visual\nFormat profile                   : Simple@L3\nFormat settings, BVOP            : No\nFormat settings, QPel            : No\nFormat settings, GMC             : No warppoints\nFormat settings, Matrix          : Default (H.263)\nCodec ID                         : XVID\nCodec ID/Hint                    : XviD\nDuration                         : 1h 41mn\nBit rate                         : 1 177 Kbps\nWidth                            : 720 pixels\nHeight                           : 400 pixels\nDisplay aspect ratio             : 16:9\nFrame rate                       : 25.000 fps\nColor space                      : YUV\nChroma subsampling               : 4:2:0\nBit depth                        : 8 bits\nScan type                        : Progressive\nBits/(Pixel*Frame)               : 0.163\nStream size                      : 858 MiB (85%)\nWriting library                  : XviD 1.1.2 (UTC 2006-11-01)\n\nAudio:\n\nFormat                           : AC-3\nFormat/Info                      : Audio Coding 3\nMode extension                   : CM (complete main)\nCodec ID                         : 2000\nDuration                         : 1h 41mn\nBit rate mode                    : Constant\nBit rate                         : 192 Kbps\nChannel(s)                       : 2 channels\nChannel positions                : Front: L R\nSampling rate                    : 48.0 KHz\nStream size                      : 140 MiB (14%)\nAlignment                        : Aligned on interleaves\nInterleave, duration             : 32 ms (0.80 video frame)\nInterleave, preload duration     : 160 ms\n","torrent":{"xt":"urn:btih:ebd31b56d27d96d873769eb4f96bc4f63e065508","amp;dn":"Alice+1990+DVDrip+English+Klam","amp;tr":["udp%3A%2F%2Ftracker.openbittorrent.com%3A80","udp%3A%2F%2Fopen.demonii.com%3A1337","udp%3A%2F%2Ftracker.coppersurfer.tk%3A6969","udp%3A%2F%2Fexodus.desync.com%3A6969"],"infoHash":"ebd31b56d27d96d873769eb4f96bc4f63e065508","infoHashBuffer":{"type":"Buffer","data":[235,211,27,86,210,125,150,216,115,118,158,180,249,107,196,246,62,6,85,8]},"announce":[],"urlList":[]}}